<svg width="251" height="134" viewBox="0 0 251 134" fill="none" xmlns="http://www.w3.org/2000/svg">
<rect x="15" y="22" width="195" height="24" rx="4" fill="#C7E6CC"/>
<path d="M23.72 30.232H28.58V31.321H24.881V33.067H28.148V34.174H24.881V37H23.72V30.232ZM29.3776 32.14H30.5206V37H29.3776V32.14ZM29.3506 30.232H30.5476V31.33H29.3506V30.232ZM31.7419 32.14H32.8399V32.707C33.0079 32.485 33.1999 32.335 33.4159 32.257C33.6319 32.173 33.8779 32.131 34.1539 32.131C34.2799 32.131 34.3729 32.134 34.4329 32.14V33.166C33.9469 33.166 33.5569 33.253 33.2629 33.427C32.9749 33.595 32.8309 33.91 32.8309 34.372V37H31.7419V32.14ZM36.9703 37.108C36.4003 37.108 35.9203 36.988 35.5303 36.748C35.1403 36.502 34.8913 36.166 34.7833 35.74L35.8903 35.533C36.0163 35.965 36.3853 36.181 36.9973 36.181C37.2913 36.181 37.5163 36.133 37.6723 36.037C37.8343 35.935 37.9153 35.791 37.9153 35.605C37.9153 35.455 37.8613 35.338 37.7533 35.254C37.6513 35.164 37.5193 35.098 37.3573 35.056C37.2013 35.014 36.9853 34.969 36.7093 34.921C36.3253 34.849 36.0163 34.777 35.7823 34.705C35.5543 34.627 35.3563 34.498 35.1883 34.318C35.0203 34.138 34.9363 33.889 34.9363 33.571C34.9363 33.097 35.1133 32.722 35.4673 32.446C35.8273 32.17 36.3013 32.032 36.8893 32.032C37.4233 32.032 37.8793 32.149 38.2573 32.383C38.6413 32.617 38.8963 32.935 39.0223 33.337L37.9693 33.58C37.8133 33.154 37.4593 32.941 36.9072 32.941C36.6493 32.941 36.4453 32.986 36.2953 33.076C36.1513 33.166 36.0793 33.292 36.0793 33.454C36.0793 33.64 36.1693 33.775 36.3493 33.859C36.5353 33.937 36.8233 34.009 37.2133 34.075C37.5913 34.141 37.9033 34.216 38.1493 34.3C38.3953 34.378 38.6053 34.513 38.7793 34.705C38.9593 34.891 39.0493 35.155 39.0493 35.497C39.0493 36.001 38.8573 36.397 38.4733 36.685C38.0893 36.967 37.5883 37.108 36.9703 37.108ZM42.2004 36.982C41.9844 37.06 41.7684 37.099 41.5524 37.099C41.2044 37.099 40.9164 36.985 40.6884 36.757C40.4604 36.523 40.3464 36.145 40.3464 35.623V33.175H39.5364V32.14H40.3464V30.601H41.4174V32.14H42.3534V33.175H41.4354V35.614C41.4354 35.776 41.4774 35.896 41.5614 35.974C41.6514 36.052 41.7654 36.091 41.9034 36.091C42.0054 36.091 42.1044 36.073 42.2004 36.037V36.982ZM45.5257 30.232H46.7767L50.1607 35.101V30.232H51.3307V37H50.1157L46.7047 32.122V37H45.5257V30.232ZM54.0025 37.108C53.6725 37.108 53.3785 37.051 53.1205 36.937C52.8625 36.817 52.6585 36.649 52.5085 36.433C52.3645 36.217 52.2925 35.971 52.2925 35.695C52.2925 35.347 52.3975 35.059 52.6075 34.831C52.8235 34.597 53.1115 34.426 53.4715 34.318C53.5675 34.288 53.6665 34.261 53.7685 34.237C53.8765 34.207 53.9845 34.174 54.0925 34.138C54.5605 34.012 54.9055 33.904 55.1275 33.814C55.3495 33.718 55.4605 33.601 55.4605 33.463C55.4605 33.313 55.3795 33.199 55.2175 33.121C55.0555 33.043 54.8425 33.004 54.5785 33.004C54.3145 33.004 54.0805 33.058 53.8765 33.166C53.6725 33.274 53.5375 33.424 53.4715 33.616L52.4365 33.283C52.5625 32.899 52.8175 32.596 53.2015 32.374C53.5855 32.146 54.0415 32.032 54.5695 32.032C55.2055 32.032 55.7035 32.17 56.0635 32.446C56.4235 32.722 56.6035 33.115 56.6035 33.625V35.65C56.6035 35.776 56.6215 35.875 56.6575 35.947C56.6995 36.013 56.7685 36.046 56.8645 36.046C56.9125 36.046 56.9485 36.043 56.9725 36.037V37.018C56.8645 37.066 56.7325 37.09 56.5765 37.09C56.3425 37.09 56.1325 37.039 55.9465 36.937C55.7665 36.829 55.6765 36.673 55.6765 36.469C55.4485 36.673 55.1905 36.832 54.9025 36.946C54.6205 37.054 54.3205 37.108 54.0025 37.108ZM54.1105 36.172C54.3445 36.172 54.5995 36.115 54.8755 36.001C55.1515 35.881 55.3645 35.746 55.5145 35.596V34.624C55.3645 34.714 55.1995 34.789 55.0195 34.849C54.8455 34.903 54.6415 34.957 54.4075 35.011C54.1735 35.071 53.9905 35.125 53.8585 35.173C53.7325 35.215 53.6275 35.278 53.5435 35.362C53.4595 35.44 53.4175 35.545 53.4175 35.677C53.4175 35.839 53.4775 35.962 53.5975 36.046C53.7235 36.13 53.8945 36.172 54.1105 36.172ZM57.8981 32.14H58.9691V32.707C59.1191 32.491 59.3171 32.326 59.5631 32.212C59.8151 32.092 60.1001 32.032 60.4181 32.032C60.7601 32.032 61.0691 32.11 61.3451 32.266C61.6211 32.422 61.8401 32.659 62.0021 32.977C62.1701 32.671 62.3921 32.437 62.6681 32.275C62.9501 32.113 63.2681 32.032 63.6221 32.032C63.9401 32.032 64.2431 32.104 64.5311 32.248C64.8251 32.386 65.0621 32.596 65.2421 32.878C65.4221 33.154 65.5121 33.484 65.5121 33.868V37H64.4141V34.192C64.4141 33.826 64.3241 33.547 64.1441 33.355C63.9701 33.163 63.7391 33.067 63.4511 33.067C63.2411 33.067 63.0461 33.118 62.8661 33.22C62.6861 33.322 62.5421 33.469 62.4341 33.661C62.3261 33.847 62.2721 34.063 62.2721 34.309V37H61.1651V34.192C61.1651 33.82 61.0751 33.541 60.8951 33.355C60.7211 33.163 60.4841 33.067 60.1841 33.067C59.9741 33.067 59.7791 33.118 59.5991 33.22C59.4191 33.322 59.2751 33.469 59.1671 33.661C59.0591 33.847 59.0051 34.063 59.0051 34.309V37H57.8981V32.14ZM68.8384 37.108C68.3824 37.108 67.9684 37 67.5964 36.784C67.2244 36.562 66.9304 36.259 66.7144 35.875C66.4984 35.491 66.3904 35.062 66.3904 34.588C66.3904 34.084 66.4924 33.64 66.6964 33.256C66.9004 32.866 67.1824 32.566 67.5424 32.356C67.9084 32.14 68.3194 32.032 68.7754 32.032C69.1894 32.032 69.5764 32.125 69.9364 32.311C70.2964 32.497 70.5934 32.806 70.8274 33.238C71.0614 33.664 71.1784 34.219 71.1784 34.903H67.5334C67.5334 35.137 67.5934 35.347 67.7134 35.533C67.8334 35.719 67.9924 35.866 68.1904 35.974C68.3884 36.076 68.6044 36.127 68.8384 36.127C69.1084 36.127 69.3544 36.061 69.5764 35.929C69.7984 35.797 69.9694 35.626 70.0894 35.416L70.9894 35.83C70.7974 36.214 70.5064 36.523 70.1164 36.757C69.7324 36.991 69.3064 37.108 68.8384 37.108ZM69.9454 33.985C69.9454 33.853 69.9034 33.712 69.8194 33.562C69.7414 33.406 69.6154 33.274 69.4414 33.166C69.2674 33.052 69.0454 32.995 68.7754 32.995C68.5174 32.995 68.2954 33.052 68.1094 33.166C67.9294 33.274 67.7944 33.406 67.7044 33.562C67.6204 33.718 67.5784 33.859 67.5784 33.985H69.9454Z" fill="black"/>
<rect x="15" y="52" width="195" height="24" rx="4" fill="#C7E6CC"/>
<path d="M23.72 60.232H24.899V65.857H28.751V67H23.72V60.232ZM30.8521 67.108C30.5221 67.108 30.2281 67.051 29.9701 66.937C29.7121 66.817 29.5081 66.649 29.3581 66.433C29.2141 66.217 29.1421 65.971 29.1421 65.695C29.1421 65.347 29.2471 65.059 29.4571 64.831C29.6731 64.597 29.9611 64.426 30.3211 64.318C30.4171 64.288 30.5161 64.261 30.6181 64.237C30.7261 64.207 30.8341 64.174 30.9421 64.138C31.4101 64.012 31.7551 63.904 31.9771 63.814C32.1991 63.718 32.3101 63.601 32.3101 63.463C32.3101 63.313 32.2291 63.199 32.0671 63.121C31.9051 63.043 31.6921 63.004 31.4281 63.004C31.1641 63.004 30.9301 63.058 30.7261 63.166C30.5221 63.274 30.3871 63.424 30.3211 63.616L29.2861 63.283C29.4121 62.899 29.6671 62.596 30.0511 62.374C30.4351 62.146 30.8911 62.032 31.4191 62.032C32.0551 62.032 32.5531 62.17 32.9131 62.446C33.2731 62.722 33.4531 63.115 33.4531 63.625V65.65C33.4531 65.776 33.4711 65.875 33.5071 65.947C33.5491 66.013 33.6181 66.046 33.7141 66.046C33.7621 66.046 33.7981 66.043 33.8221 66.037V67.018C33.7141 67.066 33.5821 67.09 33.4261 67.09C33.1921 67.09 32.9821 67.039 32.7961 66.937C32.6161 66.829 32.5261 66.673 32.5261 66.469C32.2981 66.673 32.0401 66.832 31.7521 66.946C31.4701 67.054 31.1701 67.108 30.8521 67.108ZM30.9601 66.172C31.1941 66.172 31.4491 66.115 31.7251 66.001C32.0011 65.881 32.2141 65.746 32.3641 65.596V64.624C32.2141 64.714 32.0491 64.789 31.8691 64.849C31.6951 64.903 31.4911 64.957 31.2571 65.011C31.0231 65.071 30.8401 65.125 30.7081 65.173C30.5821 65.215 30.4771 65.278 30.3931 65.362C30.3091 65.44 30.2671 65.545 30.2671 65.677C30.2671 65.839 30.3271 65.962 30.4471 66.046C30.5731 66.13 30.7441 66.172 30.9601 66.172ZM36.5747 67.108C36.0047 67.108 35.5247 66.988 35.1347 66.748C34.7447 66.502 34.4957 66.166 34.3877 65.74L35.4947 65.533C35.6207 65.965 35.9897 66.181 36.6017 66.181C36.8957 66.181 37.1207 66.133 37.2767 66.037C37.4387 65.935 37.5197 65.791 37.5197 65.605C37.5197 65.455 37.4657 65.338 37.3577 65.254C37.2557 65.164 37.1237 65.098 36.9617 65.056C36.8057 65.014 36.5897 64.969 36.3137 64.921C35.9297 64.849 35.6207 64.777 35.3867 64.705C35.1587 64.627 34.9607 64.498 34.7927 64.318C34.6247 64.138 34.5407 63.889 34.5407 63.571C34.5407 63.097 34.7177 62.722 35.0717 62.446C35.4317 62.17 35.9057 62.032 36.4937 62.032C37.0277 62.032 37.4837 62.149 37.8617 62.383C38.2457 62.617 38.5007 62.935 38.6267 63.337L37.5737 63.58C37.4177 63.154 37.0637 62.941 36.5117 62.941C36.2537 62.941 36.0497 62.986 35.8997 63.076C35.7557 63.166 35.6837 63.292 35.6837 63.454C35.6837 63.64 35.7737 63.775 35.9537 63.859C36.1397 63.937 36.4277 64.009 36.8177 64.075C37.1957 64.141 37.5077 64.216 37.7537 64.3C37.9997 64.378 38.2097 64.513 38.3837 64.705C38.5637 64.891 38.6537 65.155 38.6537 65.497C38.6537 66.001 38.4617 66.397 38.0777 66.685C37.6937 66.967 37.1927 67.108 36.5747 67.108ZM41.8049 66.982C41.5889 67.06 41.3729 67.099 41.1569 67.099C40.8089 67.099 40.5209 66.985 40.2929 66.757C40.0649 66.523 39.9509 66.145 39.9509 65.623V63.175H39.1409V62.14H39.9509V60.601H41.0219V62.14H41.9579V63.175H41.0399V65.614C41.0399 65.776 41.0819 65.896 41.1659 65.974C41.2559 66.052 41.3699 66.091 41.5079 66.091C41.6099 66.091 41.7089 66.073 41.8049 66.037V66.982ZM45.1302 60.232H46.3812L49.7652 65.101V60.232H50.9352V67H49.7202L46.3092 62.122V67H45.1302V60.232ZM53.607 67.108C53.277 67.108 52.983 67.051 52.725 66.937C52.467 66.817 52.263 66.649 52.113 66.433C51.969 66.217 51.897 65.971 51.897 65.695C51.897 65.347 52.002 65.059 52.212 64.831C52.428 64.597 52.716 64.426 53.076 64.318C53.172 64.288 53.271 64.261 53.373 64.237C53.481 64.207 53.589 64.174 53.697 64.138C54.165 64.012 54.51 63.904 54.732 63.814C54.954 63.718 55.065 63.601 55.065 63.463C55.065 63.313 54.984 63.199 54.822 63.121C54.66 63.043 54.447 63.004 54.183 63.004C53.919 63.004 53.685 63.058 53.481 63.166C53.277 63.274 53.142 63.424 53.076 63.616L52.041 63.283C52.167 62.899 52.422 62.596 52.806 62.374C53.19 62.146 53.646 62.032 54.174 62.032C54.81 62.032 55.308 62.17 55.668 62.446C56.028 62.722 56.208 63.115 56.208 63.625V65.65C56.208 65.776 56.226 65.875 56.262 65.947C56.304 66.013 56.373 66.046 56.469 66.046C56.517 66.046 56.553 66.043 56.577 66.037V67.018C56.469 67.066 56.337 67.09 56.181 67.09C55.947 67.09 55.737 67.039 55.551 66.937C55.371 66.829 55.281 66.673 55.281 66.469C55.053 66.673 54.795 66.832 54.507 66.946C54.225 67.054 53.925 67.108 53.607 67.108ZM53.715 66.172C53.949 66.172 54.204 66.115 54.48 66.001C54.756 65.881 54.969 65.746 55.119 65.596V64.624C54.969 64.714 54.804 64.789 54.624 64.849C54.45 64.903 54.246 64.957 54.012 65.011C53.778 65.071 53.595 65.125 53.463 65.173C53.337 65.215 53.232 65.278 53.148 65.362C53.064 65.44 53.022 65.545 53.022 65.677C53.022 65.839 53.082 65.962 53.202 66.046C53.328 66.13 53.499 66.172 53.715 66.172ZM57.5026 62.14H58.5736V62.707C58.7236 62.491 58.9216 62.326 59.1676 62.212C59.4196 62.092 59.7046 62.032 60.0226 62.032C60.3646 62.032 60.6736 62.11 60.9496 62.266C61.2256 62.422 61.4446 62.659 61.6066 62.977C61.7746 62.671 61.9966 62.437 62.2726 62.275C62.5546 62.113 62.8726 62.032 63.2266 62.032C63.5446 62.032 63.8476 62.104 64.1356 62.248C64.4296 62.386 64.6666 62.596 64.8466 62.878C65.0266 63.154 65.1166 63.484 65.1166 63.868V67H64.0186V64.192C64.0186 63.826 63.9286 63.547 63.7486 63.355C63.5746 63.163 63.3436 63.067 63.0556 63.067C62.8456 63.067 62.6506 63.118 62.4706 63.22C62.2906 63.322 62.1466 63.469 62.0386 63.661C61.9306 63.847 61.8766 64.063 61.8766 64.309V67H60.7696V64.192C60.7696 63.82 60.6796 63.541 60.4996 63.355C60.3256 63.163 60.0886 63.067 59.7886 63.067C59.5786 63.067 59.3836 63.118 59.2036 63.22C59.0236 63.322 58.8796 63.469 58.7716 63.661C58.6636 63.847 58.6096 64.063 58.6096 64.309V67H57.5026V62.14ZM68.4429 67.108C67.9869 67.108 67.5729 67 67.2009 66.784C66.8289 66.562 66.5349 66.259 66.3189 65.875C66.1029 65.491 65.9949 65.062 65.9949 64.588C65.9949 64.084 66.0969 63.64 66.3009 63.256C66.5049 62.866 66.7869 62.566 67.1469 62.356C67.5129 62.14 67.9239 62.032 68.3799 62.032C68.7939 62.032 69.1809 62.125 69.5409 62.311C69.9009 62.497 70.1979 62.806 70.4319 63.238C70.6659 63.664 70.7829 64.219 70.7829 64.903H67.1379C67.1379 65.137 67.1979 65.347 67.3179 65.533C67.4379 65.719 67.5969 65.866 67.7949 65.974C67.9929 66.076 68.2089 66.127 68.4429 66.127C68.7129 66.127 68.9589 66.061 69.1809 65.929C69.4029 65.797 69.5739 65.626 69.6939 65.416L70.5939 65.83C70.4019 66.214 70.1109 66.523 69.7209 66.757C69.3369 66.991 68.9109 67.108 68.4429 67.108ZM69.5499 63.985C69.5499 63.853 69.5079 63.712 69.4239 63.562C69.3459 63.406 69.2199 63.274 69.0459 63.166C68.8719 63.052 68.6499 62.995 68.3799 62.995C68.1219 62.995 67.8999 63.052 67.7139 63.166C67.5339 63.274 67.3989 63.406 67.3089 63.562C67.2249 63.718 67.1829 63.859 67.1829 63.985H69.5499Z" fill="black"/>
<rect x="15" y="82" width="195" height="24" rx="4" fill="#C7E6CC"/>
<path d="M23.72 90.232H28.598V91.276H24.881V93.04H28.301V94.093H24.881V95.929H28.679V97H23.72V90.232ZM29.6149 92.14H30.6859V92.707C30.8359 92.491 31.0339 92.326 31.2799 92.212C31.5319 92.092 31.8169 92.032 32.1349 92.032C32.4769 92.032 32.7859 92.11 33.0619 92.266C33.3379 92.422 33.5569 92.659 33.7189 92.977C33.8869 92.671 34.1089 92.437 34.3849 92.275C34.6669 92.113 34.9849 92.032 35.3389 92.032C35.6569 92.032 35.9599 92.104 36.2479 92.248C36.5419 92.386 36.7789 92.596 36.9589 92.878C37.1389 93.154 37.2289 93.484 37.2289 93.868V97H36.1309V94.192C36.1309 93.826 36.0409 93.547 35.8609 93.355C35.6869 93.163 35.4559 93.067 35.1679 93.067C34.9579 93.067 34.7629 93.118 34.5829 93.22C34.4029 93.322 34.2589 93.469 34.1509 93.661C34.0429 93.847 33.9889 94.063 33.9889 94.309V97H32.8819V94.192C32.8819 93.82 32.7919 93.541 32.6119 93.355C32.4379 93.163 32.2009 93.067 31.9009 93.067C31.6909 93.067 31.4959 93.118 31.3159 93.22C31.1359 93.322 30.9919 93.469 30.8839 93.661C30.7759 93.847 30.7219 94.063 30.7219 94.309V97H29.6149V92.14ZM38.3952 92.14H39.5202V92.824C39.6402 92.602 39.8292 92.416 40.0872 92.266C40.3452 92.11 40.6212 92.032 40.9152 92.032C41.3652 92.032 41.7492 92.146 42.0672 92.374C42.3912 92.596 42.6342 92.902 42.7962 93.292C42.9642 93.682 43.0482 94.12 43.0482 94.606C43.0482 95.086 42.9642 95.515 42.7962 95.893C42.6282 96.271 42.3852 96.568 42.0672 96.784C41.7492 96.994 41.3742 97.099 40.9422 97.099C40.6542 97.099 40.3782 97.027 40.1142 96.883C39.8502 96.739 39.6492 96.553 39.5112 96.325V98.98H38.3952V92.14ZM39.5472 94.543C39.5472 94.813 39.5982 95.065 39.7002 95.299C39.8022 95.527 39.9432 95.71 40.1232 95.848C40.3092 95.98 40.5192 96.046 40.7532 96.046C40.9872 96.046 41.1942 95.977 41.3742 95.839C41.5542 95.701 41.6922 95.518 41.7882 95.29C41.8842 95.056 41.9322 94.807 41.9322 94.543C41.9322 94.123 41.8242 93.766 41.6082 93.472C41.3922 93.178 41.1042 93.031 40.7442 93.031C40.3842 93.031 40.0932 93.178 39.8712 93.472C39.6552 93.76 39.5472 94.117 39.5472 94.543ZM43.985 90.232H45.128V97H43.985V90.232ZM48.5543 97.108C48.0743 97.108 47.6453 97 47.2673 96.784C46.8893 96.562 46.5923 96.259 46.3763 95.875C46.1663 95.485 46.0613 95.05 46.0613 94.57C46.0613 94.09 46.1663 93.658 46.3763 93.274C46.5923 92.884 46.8893 92.581 47.2673 92.365C47.6453 92.143 48.0743 92.032 48.5543 92.032C49.0343 92.032 49.4603 92.143 49.8323 92.365C50.2103 92.581 50.5043 92.884 50.7143 93.274C50.9243 93.658 51.0293 94.09 51.0293 94.57C51.0293 95.05 50.9243 95.485 50.7143 95.875C50.5043 96.259 50.2103 96.562 49.8323 96.784C49.4603 97 49.0343 97.108 48.5543 97.108ZM47.1773 94.57C47.1773 94.858 47.2343 95.119 47.3483 95.353C47.4683 95.581 47.6333 95.764 47.8433 95.902C48.0533 96.034 48.2903 96.1 48.5543 96.1C48.8123 96.1 49.0463 96.034 49.2563 95.902C49.4663 95.764 49.6313 95.578 49.7513 95.344C49.8713 95.11 49.9313 94.852 49.9313 94.57C49.9313 94.282 49.8713 94.024 49.7513 93.796C49.6313 93.562 49.4663 93.379 49.2563 93.247C49.0463 93.115 48.8123 93.049 48.5543 93.049C48.2903 93.049 48.0533 93.115 47.8433 93.247C47.6333 93.379 47.4683 93.562 47.3483 93.796C47.2343 94.024 47.1773 94.282 47.1773 94.57ZM51.7803 98.08C52.1043 98.08 52.3443 98.041 52.5003 97.963C52.6563 97.885 52.7673 97.744 52.8333 97.54L53.0673 96.874L51.2853 92.14H52.4373L53.6433 95.461L54.7683 92.14H55.9383L53.7963 98.035C53.6883 98.341 53.5503 98.572 53.3823 98.728C53.2143 98.884 53.0043 98.989 52.7523 99.043C52.5063 99.103 52.1823 99.133 51.7803 99.133V98.08ZM58.6607 97.108C58.2047 97.108 57.7907 97 57.4187 96.784C57.0467 96.562 56.7527 96.259 56.5367 95.875C56.3207 95.491 56.2127 95.062 56.2127 94.588C56.2127 94.084 56.3147 93.64 56.5187 93.256C56.7227 92.866 57.0047 92.566 57.3647 92.356C57.7307 92.14 58.1417 92.032 58.5977 92.032C59.0117 92.032 59.3987 92.125 59.7587 92.311C60.1187 92.497 60.4157 92.806 60.6497 93.238C60.8837 93.664 61.0007 94.219 61.0007 94.903H57.3557C57.3557 95.137 57.4157 95.347 57.5357 95.533C57.6557 95.719 57.8147 95.866 58.0127 95.974C58.2107 96.076 58.4267 96.127 58.6607 96.127C58.9307 96.127 59.1767 96.061 59.3987 95.929C59.6207 95.797 59.7917 95.626 59.9117 95.416L60.8117 95.83C60.6197 96.214 60.3287 96.523 59.9387 96.757C59.5547 96.991 59.1287 97.108 58.6607 97.108ZM59.7677 93.985C59.7677 93.853 59.7257 93.712 59.6417 93.562C59.5637 93.406 59.4377 93.274 59.2637 93.166C59.0897 93.052 58.8677 92.995 58.5977 92.995C58.3397 92.995 58.1177 93.052 57.9317 93.166C57.7517 93.274 57.6167 93.406 57.5267 93.562C57.4427 93.718 57.4007 93.859 57.4007 93.985H59.7677ZM61.8796 92.14H62.9776V92.707C63.1456 92.485 63.3376 92.335 63.5536 92.257C63.7696 92.173 64.0156 92.131 64.2916 92.131C64.4176 92.131 64.5106 92.134 64.5706 92.14V93.166C64.0846 93.166 63.6946 93.253 63.4006 93.427C63.1126 93.595 62.9686 93.91 62.9686 94.372V97H61.8796V92.14Z" fill="black"/>
<path d="M95.5234 66.999C95.5234 29.9963 125.519 -0.000976562 162.523 -0.000976562C199.525 -0.000976562 229.522 29.9963 229.522 66.999C229.522 104.002 199.525 133.999 162.523 133.999C125.519 133.999 95.5234 104.002 95.5234 66.999Z" fill="#CACACA"/>
<path d="M162.525 133.999C183.893 133.999 202.91 123.984 215.178 108.405L213.222 102.292L206.825 97.1753L197.444 89.4994C199.576 87.9361 204.778 83.1881 208.531 76.7063C213.222 68.604 210.237 61.3546 206.825 57.0902C204.096 53.6787 198.865 52.8259 196.591 52.8259L189.341 54.1052C188.347 53.3947 185.844 51.6318 183.798 50.2672C184.65 45.15 184.65 35.342 182.945 26.8132C181.239 18.2845 173.99 13.5937 165.461 12.3144C156.932 11.0351 150.962 14.0201 145.418 19.5638C139.875 25.1075 136.89 41.3121 136.89 41.3121H134.331C130.919 50.2672 128.789 64.9836 133.478 76.7063C133.194 77.2752 132.284 79.0091 130.919 81.3971C127.082 81.3971 122.817 82.6764 118.126 84.8086C113.436 86.9408 110.024 92.4845 108.318 96.3224V105.278L108.749 106.965C120.961 123.37 140.501 133.999 162.525 133.999Z" fill="white"/>
<path d="M181.749 131.186C181.805 130.962 181.859 130.753 182.036 130.578C182.143 130.468 182.132 130.228 182.132 130.045C182.132 129.673 182.105 129.305 182.088 128.965C181.95 128.837 181.84 128.734 181.709 128.613C181.946 127.991 182.177 127.384 182.411 126.765C182.105 126.462 182.088 126.06 182.188 125.715C182.432 124.873 182.125 124.026 182.284 123.192C182.339 122.9 181.96 122.825 182.026 122.456C182.177 121.616 182.046 120.739 182.218 119.885C182.27 119.631 182.153 119.342 182.105 119.014C182.263 118.97 182.408 118.877 182.528 118.901C182.724 118.939 182.883 118.901 183.062 118.826C183.227 118.757 183.436 118.705 183.602 118.746C184.256 118.901 184.889 118.705 185.533 118.66C185.67 118.65 185.808 118.574 185.946 118.529C186.087 118.481 186.231 118.385 186.373 118.392C186.954 118.422 187.536 118.488 188.121 118.543C188.551 118.278 188.981 118.065 189.511 118.085C189.731 118.092 189.963 117.92 190.203 117.824C190.764 118.154 191.39 118.433 191.742 119.066C191.793 119.163 191.934 119.215 192.041 119.276C192.12 119.321 192.261 119.328 192.288 119.389C192.681 120.25 193.61 120.67 194.058 121.562C193.93 121.696 193.786 121.844 193.644 121.995C193.517 122.129 193.301 122.264 193.29 122.408C193.262 122.8 192.973 122.972 192.788 123.241C192.53 123.616 192.22 123.86 191.852 124.022C191.563 124.786 191.25 125.475 190.544 125.915C190.272 126.087 190.086 126.369 189.917 126.682C189.611 127.247 189.188 127.753 188.603 128.09C188.525 128.355 188.454 128.615 188.327 128.844C190.061 128.119 191.754 127.313 193.411 126.45C193.479 126.353 193.56 126.261 193.693 126.197C193.975 126.06 194.247 125.75 194.368 125.454C194.664 124.721 195.352 124.359 195.717 123.754C196.164 123.912 196.529 124.046 197.104 124.253C197.133 124.27 197.115 124.328 197.09 124.4C197.632 124.073 198.16 123.727 198.693 123.385C198.564 123.148 198.415 122.931 198.044 122.896C197.871 122.883 197.702 122.56 197.579 122.35C197.241 121.782 196.925 121.197 196.612 120.635C196.436 120.681 196.329 120.708 196.212 120.739C195.937 120.26 195.678 119.806 195.406 119.328C195.097 119.21 194.711 119.139 194.56 118.733C194.447 118.433 194.258 118.216 193.972 118.051C193.796 117.947 193.693 117.724 193.538 117.576C193.284 117.331 193.325 116.96 193.149 116.699C192.891 116.32 192.547 115.999 192.285 115.621C192.017 115.233 191.638 114.998 191.26 114.74C190.954 114.533 190.668 114.451 190.306 114.479C190.144 114.492 189.969 114.358 189.735 114.265C189.615 114.702 188.957 114.623 188.926 115.25C189.009 115.425 189.126 115.662 189.288 115.992C189.026 115.941 188.85 115.903 188.675 115.872C187.959 115.749 187.212 115.714 186.555 115.955C185.87 116.203 185.144 116.058 184.49 116.344C184.153 116.217 183.936 116.543 183.637 116.574C183.313 116.606 182.907 116.537 182.69 116.709C182.339 116.984 181.916 116.777 181.654 116.949C181.251 117.211 180.945 116.956 180.58 116.902C179.926 117.803 179.276 118.667 179.599 119.868C179.623 119.951 179.603 120.061 179.572 120.143C179.476 120.395 179.572 120.622 179.599 120.867C179.679 121.565 179.813 122.291 179.692 122.966C179.565 123.678 179.662 124.38 179.582 125.086C179.527 125.588 179.726 126.087 179.637 126.628C179.552 127.157 179.665 127.722 179.496 128.283C179.806 128.483 179.961 128.74 179.847 129.085C179.558 129.968 179.665 130.88 179.643 131.783C180.351 131.597 181.051 131.394 181.749 131.186Z" fill="black"/>
<path d="M208.445 96.8814C208.236 96.826 208.074 96.6025 207.823 96.3996C207.358 96.4268 206.907 96.3194 206.621 95.7241C206.477 95.4281 206.085 95.2362 205.782 95.0298C205.43 94.7919 205.062 94.5949 204.729 94.3168C204.416 94.055 203.958 93.9697 203.565 93.8043C203.538 93.7906 203.513 93.7625 203.493 93.742C203.197 93.4426 202.822 93.481 202.539 93.5151C202.247 93.2712 202.016 93.0819 201.765 92.8721C201.476 93.1851 201.239 93.4426 201.015 93.6866C200.867 93.6038 200.777 93.5569 200.643 93.481C200.643 93.6635 200.605 93.8034 200.654 93.8998C200.736 94.0584 200.853 94.2239 200.997 94.3202C201.252 94.4883 201.531 94.6469 201.824 94.7433C202.474 94.9531 202.98 95.3019 203.303 95.9211C203.4 96.1002 203.596 96.2435 203.772 96.3646C204.178 96.6435 204.605 96.901 205.038 97.1765C205.204 97.139 205.407 97.0938 205.679 97.0358C205.633 97.8239 206.071 98.2128 206.735 98.4123C206.838 98.8661 207.038 99.2311 207.512 99.3795C207.65 99.4238 207.784 99.5407 207.877 99.6584C208.311 100.215 208.92 100.512 209.375 100.75C209.674 101.101 209.874 101.327 210.067 101.561C210.16 101.675 210.3 101.788 210.314 101.916C210.369 102.415 210.676 102.681 211.092 102.881C211.227 102.945 211.357 103.038 211.464 103.145C211.942 103.634 212.431 104.105 212.85 104.653C213.067 104.939 213.109 105.264 213.298 105.543C213.753 106.204 214.245 106.82 214.833 107.364C215.058 107.57 215.273 107.795 215.469 108.031C215.965 107.391 216.45 106.742 216.924 106.085C216.717 105.686 216.504 105.272 216.271 104.858C216.158 104.652 216.021 104.38 215.828 104.307C215.229 104.084 215.053 103.558 214.795 103.076C213.949 102.77 213.697 102.009 213.405 101.265C213.256 101.255 213.105 101.241 212.923 101.228C212.583 100.725 212.235 100.209 211.887 99.6899C211.719 99.8 211.608 99.869 211.474 99.9586C211.295 99.6345 211.137 99.3386 210.968 99.046C210.913 98.9462 210.838 98.7987 210.755 98.785C210.307 98.7125 210.245 98.2887 210.018 98.0209C209.382 97.8725 209.399 97.8554 208.941 97.4008C208.772 97.2362 208.745 96.9607 208.445 96.8814Z" fill="black"/>
<path d="M185.332 30.1064C185.28 30.2198 185.176 30.4364 185.063 30.6744C185.266 30.8603 185.438 31.0215 185.621 31.187C185.535 31.3524 185.466 31.4829 185.363 31.6791C185.828 32.0441 185.473 32.839 186.124 33.1213C185.801 34.2121 185.642 35.2518 186.224 36.2701C186.144 36.7042 185.842 37.1068 186.073 37.5955C186.138 37.7328 186.03 37.9502 185.999 38.1285C185.886 38.7622 185.947 39.3541 186.381 39.8359C186.292 40.2837 186.206 40.7033 186.133 41.0615C186.329 41.2125 186.485 41.3327 186.665 41.4709C186.354 41.8632 185.93 42.2138 186.461 42.641C186.309 43.2602 186.143 43.8487 186.027 44.444C185.917 45.0154 185.752 45.58 185.804 46.1788C185.825 46.4031 185.669 46.6402 185.584 46.902C185.928 47.6901 185.742 48.4918 185.481 49.29C185.377 49.6065 185.242 49.9271 185.328 50.2777C185.896 50.2572 185.986 50.264 186.598 50.5839C186.925 50.7561 187.194 51.0589 187.535 51.18C187.862 51.2934 188.138 51.4623 188.399 51.6619C188.688 51.8853 189.018 52.0747 189.131 52.4704C189.158 52.5668 189.314 52.7007 189.39 52.6905C189.843 52.629 190.05 53 190.143 53.2653C190.308 53.7233 190.869 53.9365 190.835 54.5079C190.827 54.6145 191.1 54.7416 191.175 54.8039C191.331 55.6158 191.471 56.3663 191.61 57.0955C191.485 57.3676 191.348 57.6056 191.265 57.8597C191.155 58.2009 191.495 58.3245 191.65 58.548C191.509 59.5151 191.448 60.5062 190.735 61.3292C190.57 61.2985 190.401 61.2635 190.239 61.2328C190.222 61.3053 190.178 61.3736 190.195 61.4153C190.298 61.6593 190.415 61.8938 190.514 62.107C190.157 62.5923 189.858 63.0256 189.53 63.4324C189.379 63.6175 189.191 63.8034 188.977 63.9032C188.781 63.9961 188.688 64.1104 188.65 64.3066C188.584 64.6571 188.23 64.8328 188.133 65.2012C188.057 65.4972 187.751 65.7514 187.503 65.9825C187.183 66.2818 186.818 66.5155 186.258 66.2545C185.941 66.588 185.598 66.9462 185.216 67.3454C185.119 67.3172 184.974 67.2729 184.837 67.2319C184.648 67.342 184.414 67.4068 184.286 67.5654C183.663 68.3193 182.858 68.1402 182.066 68.037C181.952 68.0234 181.842 67.9953 181.625 67.9509C181.683 68.1744 181.702 68.3125 181.756 68.4328C181.829 68.588 182.001 68.6494 182.028 68.8805C182.059 69.1483 181.865 69.3411 181.897 69.5756C181.928 69.7957 182.254 69.9611 182 70.2468C181.962 70.2878 182.055 70.4532 182.1 70.5564C182.258 70.9385 182.526 71.272 182.533 71.7198C182.544 72.3876 182.719 73.0067 183.243 73.4477C183.191 73.5884 183.157 73.6711 183.112 73.7914C183.25 73.9773 183.453 74.1291 183.435 74.4524C183.407 75.0272 183.45 75.0306 183.753 75.5193C183.657 75.8767 183.539 76.2553 183.449 76.6442C183.363 77.0195 183.557 77.2779 183.925 77.4639C183.839 77.6148 183.766 77.7427 183.669 77.9176C183.921 78.4754 183.876 79.1397 184.092 79.7487C184.161 79.938 184.086 80.1726 184.103 80.3824C184.161 80.9948 184.082 81.6216 184.327 82.2135C184.368 82.3099 184.309 82.4404 184.327 82.5538C184.351 82.7295 184.341 82.9845 184.448 83.0596C184.788 83.2975 184.87 83.6105 184.753 83.9508C184.636 84.2954 184.96 84.5879 184.784 84.9325C184.619 85.2557 184.953 85.4928 185.015 85.7819C185.046 85.9303 185.077 86.0813 185.073 86.2297C185.053 86.8045 185.301 87.3623 185.125 87.9192C185.259 87.9747 185.339 88.0088 185.422 88.0437C185.181 88.883 185.731 89.7265 185.387 90.6416C185.211 90.6621 184.998 90.6587 184.805 90.7209C184.64 90.7729 184.495 90.9 184.302 91.0203C183.669 90.1597 183.332 89.196 183.271 88.1358C183.261 87.9508 183.291 87.7956 183.158 87.6267C182.744 87.1141 182.868 86.4566 182.727 85.8681C182.703 85.7717 182.802 85.6446 182.854 85.5099C182.41 84.86 182.227 84.1299 182.1 83.3487C181.952 82.4506 181.931 81.48 181.233 80.7679C181.601 80.1999 181.38 79.6489 181.315 79.109C181.28 78.8336 181.157 78.5717 181.119 78.2963C181.091 78.0899 181.099 77.8664 181.151 77.6634C181.264 77.1986 181.234 76.7474 181.113 76.2903C180.992 75.8425 180.896 75.3914 180.786 74.9445C180.748 74.7961 180.744 74.6178 180.654 74.5035C180.272 74.0148 180.19 73.4264 180.028 72.8583C179.884 72.3526 179.818 71.8161 179.457 71.3513C179.498 71.1381 179.547 70.9001 179.595 70.6596C179.251 70.3048 178.926 69.9714 178.879 69.4136C178.844 69.0281 178.676 68.6255 178.475 68.2844C178.138 67.7138 178.163 67.1697 178.415 66.5983C178.515 66.3714 178.611 66.1437 178.731 65.8656C179.169 65.7965 179.615 65.7241 180.007 65.6584C180.107 65.4588 180.186 65.2942 180.269 65.1356C180.503 65.2524 180.728 65.4554 180.845 65.4076C181.175 65.2695 181.277 65.5867 181.498 65.6481C181.694 65.7036 181.869 65.8341 182.141 65.9791C182.475 65.9543 182.889 65.8511 183.109 65.411H183.584C183.694 65.1663 183.732 64.8703 184.128 64.9326C184.259 64.9531 184.468 64.8985 184.54 64.8021C184.953 64.2409 185.652 64.0175 186.076 63.4767C186.134 63.4042 186.199 63.2976 186.275 63.2874C186.725 63.232 186.853 62.8473 187.025 62.5335C187.455 61.7556 187.861 60.9642 188.267 60.1761C188.35 60.0107 188.437 59.829 188.451 59.6533C188.491 59.0026 188.773 58.4661 189.162 57.9842C189.035 57.4844 188.908 57.0103 188.794 56.5318C188.729 56.2529 188.646 56.0013 188.405 55.8086C188.264 55.6951 188.154 55.5297 188.054 55.3753C187.789 54.9582 187.562 54.5147 187.266 54.119C186.99 53.7472 186.651 53.4273 186.286 53.0248C185.818 52.8286 185.198 53.0035 184.654 52.7254C184.513 52.6529 184.259 52.7936 184.01 52.8491C183.395 52.5395 182.671 52.4738 181.941 52.4568C181.473 51.586 181.543 50.9045 181.966 50.0269C182.225 49.4896 182.499 48.9148 182.457 48.2649C182.433 47.8657 182.486 47.4803 182.633 47.0879C182.771 46.7195 182.769 46.299 182.83 45.9033C182.844 45.8137 182.84 45.7071 182.889 45.6423C183.171 45.2909 183.06 44.9438 182.902 44.589C182.851 44.4756 182.802 44.3621 182.795 44.3442C182.967 43.5391 183.154 42.8236 183.261 42.0969C183.34 41.5605 183.394 41.0163 183.394 40.462C183.397 40.0628 183.315 39.743 183.135 39.3541C183.26 39.1272 183.405 38.8586 183.587 38.5285C183.408 38.1362 183.216 37.7191 182.999 37.2475C183.092 37.0445 183.181 36.7767 183.091 36.4424C182.974 36.0091 182.902 35.5511 183.032 35.0931C183.057 35.007 183.06 34.9004 183.029 34.8176C182.829 34.2326 182.624 33.6543 182.407 33.0454C182.669 32.5916 182.682 32.0714 182.647 31.4931C182.028 30.9081 182.224 30.0305 181.993 29.2765C181.948 29.1324 182.001 28.9328 181.915 28.8296C181.55 28.3785 181.481 27.7968 181.216 27.3115C180.968 26.8646 180.834 26.3998 180.802 25.9077C180.754 25.1333 180.414 24.4757 180.015 23.8497C179.822 23.5503 179.715 23.2467 179.657 22.9064C179.554 22.3179 179.332 21.8156 178.847 21.3849C178.345 20.9414 177.983 20.3393 177.56 19.802C177.667 19.4472 177.396 19.1794 177.231 18.9798C176.886 18.5627 176.421 18.2463 176.005 17.8949C175.96 17.8574 175.877 17.8711 175.832 17.8369C175.272 17.3755 174.718 16.9073 174.085 16.3777C173.472 16.2259 172.731 16.1329 172.115 15.6408C171.882 15.4549 171.564 15.338 171.265 15.2766C170.742 15.1692 170.309 14.9423 169.975 14.5159C169.252 14.4988 168.546 14.4775 167.841 14.4604C167.565 14.1952 167.201 14.3333 166.895 14.2404C166.613 14.1542 166.371 13.9308 166.069 13.7414C165.793 13.8822 165.521 14.0203 165.201 14.1849C164.19 14.0203 163.124 13.999 162.067 14.237C161.895 14.2745 161.78 14.2915 161.66 14.1542C161.625 14.1133 161.536 14.0647 161.498 14.0817C161.047 14.2881 160.617 14.0613 160.18 14.0237C159.76 13.9854 159.337 13.8856 158.921 13.9137C158.535 13.9376 158.085 13.9956 157.799 14.2165C157.287 14.6122 156.779 14.5773 156.191 14.4604C156.077 14.567 155.944 14.6915 155.799 14.8289C155.662 14.805 155.514 14.7768 155.325 14.7427C155.111 14.9525 154.893 15.2178 154.481 15.0941C154.384 15.0625 154.206 15.3039 154.027 15.448C153.831 15.3448 153.618 15.2348 153.384 15.1112C153.095 15.6544 152.416 15.7372 152.071 16.2259C151.658 16.1645 151.417 16.5363 151.07 16.625C150.967 16.6532 150.839 16.5738 150.674 16.5286C150.326 17.1069 149.731 17.431 149.136 17.8165C149.015 17.761 148.857 17.6851 148.671 17.5956C148.505 17.8779 148.365 18.1602 148.182 18.4084C147.89 18.8075 147.607 19.2271 147.25 19.558C146.65 20.1047 146.138 20.7034 145.739 21.4096C145.676 21.5162 145.595 21.6126 145.509 21.7022C145.185 22.0322 144.789 22.3145 144.555 22.6966C144.331 23.0616 144.2 23.4778 143.853 23.7738C143.75 23.8633 143.739 24.0561 143.677 24.1968C143.601 24.3657 143.561 24.5925 143.427 24.6855C142.955 25.013 142.947 25.4915 142.934 25.9768C142.927 26.1584 142.122 28.1175 141.983 28.1448C141.474 28.2514 141.392 28.6232 141.348 29.0394C141.306 29.3908 140.941 29.7072 141.23 30.0961C141.433 30.3716 140.931 30.5473 141.148 30.8569C141.344 31.1392 141.137 31.4317 141.013 31.7098C140.899 31.9648 140.859 32.2539 140.72 32.4919C140.586 32.7255 140.363 32.9081 140.191 33.1213C140.094 33.2381 140.019 33.3763 139.94 33.4965C139.989 33.7652 140.029 34.0364 140.088 34.3017C140.146 34.5737 140.225 34.8424 140.314 35.1963C140.125 35.6304 139.891 36.1328 139.688 36.6488C139.623 36.8142 139.619 37.0104 139.612 37.1929C139.599 37.5886 139.43 37.8982 139.117 38.1566V38.8927C139.158 38.931 139.197 38.9959 139.241 39.0027C139.72 39.0752 140.174 39.2304 140.69 39.1784C141.165 39.1306 141.664 39.32 142.076 39.3916C143.395 39.0547 144.641 38.7792 146.007 39.2509C146.151 39.1954 146.376 39.0957 146.613 39.0342C146.757 38.9959 146.957 38.9481 147.057 39.0172C147.473 39.2952 147.877 39.1204 148.307 39.0957C148.851 39.0649 149.415 38.931 149.968 39.1374C150.134 39.1989 150.34 39.2099 150.512 39.1716C150.984 39.0718 151.438 39.1579 151.899 39.2168C152.598 39.3063 153.297 39.3916 154.05 39.488C154.354 39.3507 154.721 39.1818 155.09 39.0172C155.416 39.1511 155.734 39.2816 156.071 39.4197C156.725 39.3131 157.4 39.1716 158.075 39.4334C158.721 39.2918 159.368 39.3745 160.019 39.4095C160.418 39.4334 160.82 39.4027 161.223 39.4232C162.276 39.4709 163.327 39.5298 164.38 39.447C164.527 39.4368 164.682 39.4956 164.829 39.5298C164.916 39.5502 165.026 39.6398 165.078 39.6125C165.629 39.3268 166.151 39.5025 166.688 39.6671C166.887 39.7293 167.129 39.7293 167.335 39.6918C168.047 39.5571 168.732 39.6023 169.403 39.8982C169.496 39.9391 169.634 39.8914 169.748 39.8803C169.872 39.8701 169.996 39.8257 170.114 39.8462C170.503 39.905 170.887 39.9844 171.276 40.056C171.62 39.7191 172.05 39.963 172.435 39.8948C172.824 39.8223 173.234 39.8735 173.637 39.8735C173.791 39.8735 173.971 39.8325 174.099 39.8948C174.402 40.0355 174.698 40.0048 175.011 39.9801C175.211 39.963 175.416 40.056 175.695 40.1114C175.942 39.9596 176.231 39.6739 176.648 39.9084C176.758 39.9698 176.944 39.9323 177.089 39.9016C177.281 39.8564 177.431 39.853 177.603 39.998C177.726 40.1012 177.967 40.201 178.088 40.1455C178.648 39.905 178.966 40.2112 179.268 40.5933C179.34 40.6863 179.385 40.7997 179.437 40.8892C178.731 41.7285 178.459 41.7771 177.379 41.2543C176.783 41.6398 175.96 41.4709 175.368 41.9801C174.828 41.8803 174.301 41.7703 173.747 41.9971C173.506 42.0969 173.199 42.0526 172.924 42.0423C172.122 42.0074 171.31 42.073 170.546 41.7251C170.23 41.5809 169.965 41.6568 169.789 42.0176C169.224 41.8112 168.672 41.7285 168.107 42.1106C167.935 42.2283 167.594 42.1489 167.346 42.0901C166.782 41.9528 166.228 41.8112 165.67 42.0867C165.268 41.963 164.83 42.259 164.434 41.9528C164.28 41.8325 164.083 41.8666 163.914 41.9971C163.676 42.1831 163.408 42.2317 163.123 42.1387C162.641 41.9835 162.124 42.2624 161.65 42.004C161.553 41.9494 161.391 41.9357 161.292 41.9767C160.73 42.2103 160.197 42.0253 159.653 41.9008C159.464 41.9903 159.271 42.0799 159.099 42.1592C159.009 42.1319 158.951 42.1174 158.893 42.0969C158.304 41.8939 157.722 41.7498 157.072 41.853C156.559 41.9357 156.012 41.8078 155.496 41.8769C154.714 41.9767 153.943 41.8496 153.169 41.8666C152.027 41.8905 150.887 41.853 149.748 41.8666C149.146 41.8735 148.571 41.8666 148.017 41.5153C147.979 41.6773 147.955 41.7805 147.917 41.9562C147.583 41.9562 147.222 42.0005 146.878 41.946C145.897 41.7873 144.91 41.9008 143.928 41.8769C143.843 41.8735 143.75 41.9178 143.667 41.9562C143.295 42.1251 142.927 42.1421 142.517 42.0457C141.946 41.911 141.375 41.911 140.772 42.0074C140.047 42.1251 139.286 42.0423 138.539 42.0176C137.995 41.9971 137.441 41.8112 136.935 42.1762C136.68 42.0764 136.429 42.3246 136.136 42.1285C135.896 41.9664 135.551 41.963 135.218 41.8837C135.032 42.0423 134.847 42.1967 134.661 42.3553C133.67 41.9246 133.517 41.818 132.764 42.1865C131.758 41.9801 130.807 41.6321 129.75 41.8078C129.055 41.9246 128.324 41.8735 127.612 41.8564C127.381 41.8496 127.157 41.7148 126.824 41.6048C126.748 41.7498 126.645 41.9425 126.555 42.114C125.894 42.0389 125.343 41.9391 124.796 41.9212C124.407 41.9076 123.98 41.7907 123.63 42.1003C122.869 42.1558 122.118 42.1626 121.475 41.6185C121.533 41.4811 121.582 41.3677 121.633 41.2543C121.399 40.9686 121.155 40.6726 120.941 40.4108C121.313 39.4334 121.513 39.285 122.387 39.337C122.783 39.3609 123.172 39.4436 123.561 39.2645C123.688 39.2065 123.867 39.2611 124.022 39.2577C124.328 39.2475 124.649 39.2782 124.941 39.2134C125.293 39.1306 125.619 39.1409 125.943 39.2713C126.314 39.4232 126.675 39.3814 127.03 39.2509C127.387 39.117 127.75 39.0649 128.129 39.1067C128.923 39.192 129.746 38.9345 130.523 39.2952C130.598 39.3302 130.713 39.3165 130.795 39.2884C131.579 39.0445 132.368 39.1204 133.166 39.2236C133.503 39.2679 133.851 39.2611 134.192 39.2441C134.653 39.2202 135.104 39.1238 135.565 39.3165C135.74 39.3882 135.989 39.2713 136.198 39.2952C136.36 39.3165 136.515 39.4232 136.787 39.54C136.628 39.1579 136.515 38.8824 136.367 38.5285C136.432 38.2078 136.571 37.8257 136.54 37.372C136.505 36.8731 136.721 36.3426 136.9 35.8505C137.124 35.2449 137.431 34.6769 137.289 33.9921C137.255 33.83 137.348 33.6339 137.41 33.4616C137.695 32.6803 138.037 31.9136 138.268 31.1145C138.436 30.5328 138.549 29.917 138.476 29.3524C138.649 28.9158 138.828 28.5234 138.962 28.1141C139.265 27.181 139.496 26.2173 139.854 25.3056C140.091 24.6889 140.184 23.9734 140.783 23.5358C140.831 23.5017 140.893 23.4506 140.899 23.3985C140.982 22.7239 141.516 22.2693 141.757 21.6672C142.204 20.5423 142.982 19.6433 143.911 18.8766C143.983 18.8177 144.08 18.7623 144.107 18.6838C144.396 17.9231 145.137 17.5546 145.618 16.9593C145.835 16.6907 146.058 16.3811 146.496 16.3257C146.685 16.3018 146.916 16.0297 146.988 15.8199C147.095 15.5137 147.316 15.3764 147.56 15.2621C148.139 14.9909 148.145 15.0011 148.505 14.567C149.229 14.3504 149.968 14.144 150.609 13.669C150.805 13.5214 151.125 13.5419 151.455 13.4694C151.6 13.3764 151.838 13.2698 152.017 13.1043C152.453 12.6984 152.991 12.6191 153.544 12.5713C153.792 12.5508 154.071 12.5815 154.274 12.4749C154.969 12.1065 155.716 12.1585 156.442 12.1474C156.828 11.8242 157.2 11.5078 157.565 11.205C158.356 11.7867 158.652 11.9001 159.667 11.5453C160.208 11.356 160.769 11.4353 161.292 11.2289C161.571 11.1189 161.888 11.1052 162.236 11.0361C162.37 11.1325 162.545 11.2596 162.73 11.3943C162.892 11.2877 163.044 11.1879 163.192 11.0882C163.588 11.1496 163.98 11.2664 164.369 11.2528C164.63 11.2459 164.843 11.2494 165.074 11.3764C165.191 11.4387 165.364 11.4046 165.512 11.4046C165.632 11.4012 165.797 11.3253 165.869 11.3764C166.568 11.8796 167.37 11.4626 168.107 11.6485C168.475 11.7415 168.892 11.7585 169.228 11.4975C169.49 11.9308 170.034 11.8208 170.237 12.2029C170.457 12.1235 170.629 12.0621 170.866 11.976C170.918 12.1304 170.963 12.2651 171.022 12.4365C171.373 12.3649 171.73 12.289 172.122 12.2097C172.329 12.7018 172.729 12.898 173.239 13.0319C173.872 13.1973 174.415 13.5896 174.934 14.0681C175.093 14.0272 175.269 13.982 175.458 13.9342C175.729 14.1679 175.999 14.3879 176.408 14.4365C176.7 14.4707 176.903 14.805 177.141 15.0011C177.564 15.3517 177.898 15.8097 178.262 16.2156C178.514 16.1713 178.751 16.1261 179.03 16.0749C179.078 16.2472 179.12 16.3879 179.169 16.5602C179.368 16.66 179.587 16.7666 179.825 16.8834C179.66 17.489 180.162 17.7508 180.448 18.1295C180.575 18.3018 180.675 18.4945 180.792 18.6907C180.957 18.7487 181.133 18.8109 181.346 18.8868C181.436 19.1896 181.542 19.5094 181.628 19.8327C181.708 20.132 181.766 20.4391 181.845 20.8032C182.155 20.9312 182.421 21.141 182.573 21.5231C182.737 21.9393 182.771 22.428 183.187 22.7478C183.343 22.8689 183.033 23.2228 183.309 23.4224C183.508 23.5708 183.715 23.7115 183.525 24.0322C183.477 24.1141 183.59 24.3282 183.676 24.4518C184.072 25.0233 184.323 25.6493 184.364 26.3443C184.385 26.6957 184.444 27.036 184.702 27.2876C184.884 27.4667 184.93 27.6765 184.885 27.8829C184.803 28.2753 184.905 28.5917 185.088 28.9431C185.242 29.2697 185.242 29.662 185.332 30.1064Z" fill="black"/>
<path d="M130.438 82.3498C129.857 82.3225 129.395 82.2875 128.935 82.2807C128.759 82.2773 128.583 82.3182 128.411 82.3557C127.874 82.4692 127.338 82.7114 126.798 82.3532C125.968 82.5835 125.145 82.8487 124.302 83.0346C123.758 83.1549 123.305 83.5088 122.74 83.5429C122.01 83.5881 121.421 84.0291 120.761 84.267C120.413 84.3907 120.069 84.5178 119.666 84.6662C119.615 84.783 119.576 84.9749 119.466 85.1054C119.315 85.2879 119.161 85.4568 118.855 85.4397C118.403 85.4158 118.066 85.6504 117.735 85.9873C117.353 86.3762 116.868 86.6755 116.397 86.9681C115.991 87.2231 115.543 87.4124 115.112 87.6325C115.171 87.7502 115.212 87.8312 115.254 87.9105C115.226 87.9591 115.209 88.0316 115.168 88.0563C114.948 88.1664 114.713 88.2551 114.493 88.3719C114.386 88.4265 114.266 88.5126 114.221 88.6158C113.95 89.2802 113.353 89.6904 112.954 90.255C112.762 90.5271 112.449 90.7122 112.436 91.0977C112.432 91.1634 112.349 91.2452 112.28 91.287C111.864 91.5309 111.617 91.9309 111.382 92.3241C110.973 93.009 110.426 93.6111 110.14 94.3753C110.05 94.6192 109.769 94.8085 109.989 95.1352C110.03 95.1974 109.881 95.3996 109.809 95.5309C109.643 95.8269 109.448 96.1092 109.311 96.4196C109.259 96.533 109.341 96.7011 109.365 96.8725C109.238 97.1753 109.015 97.507 108.983 97.8541C108.953 98.2158 108.67 98.4384 108.632 98.7693C108.622 98.8622 108.559 98.9825 108.601 99.0379C108.907 99.4814 108.583 99.8848 108.48 100.264C108.363 100.698 108.316 101.104 108.361 101.54C108.388 101.819 108.416 102.101 108.388 102.376C108.371 102.538 108.246 102.687 108.164 102.852C107.441 102.453 107.132 101.864 107.077 101.121C107.039 100.635 106.845 100.181 107.004 99.6546C107.09 99.3757 106.878 99.003 106.781 98.597C106.971 98.1526 107.128 97.6307 107.063 97.0524C107.046 96.8904 107.128 96.6695 107.243 96.5527C107.532 96.2499 107.562 95.8857 107.576 95.5139C107.586 95.2631 107.593 95.0286 107.745 94.8085C108.148 94.2064 108.316 93.5036 108.546 92.829C108.666 92.481 108.843 92.1552 108.98 91.8107C109.122 91.4636 109.342 91.229 109.772 91.2776C109.982 90.1936 110.605 89.3766 111.232 88.5681C111.307 88.4717 111.392 88.3514 111.498 88.3131C112.053 88.1135 112.352 87.6043 112.8 87.2777C113.192 86.992 113.475 86.638 113.496 86.1459C114.132 85.867 114.634 85.4781 115.123 85.0448C115.722 84.5144 116.379 84.0427 117.036 83.5822C117.278 83.4133 117.628 83.3988 117.869 83.2299C118.279 82.9408 118.891 82.9178 119.084 82.3361C119.346 82.25 119.605 82.1255 119.873 82.0837C120.297 82.0154 120.729 82.0018 121.173 81.9643C121.562 81.479 122.128 81.3101 122.681 81.1071C123.439 80.8282 124.25 80.8009 125.021 80.5911C125.169 80.5536 125.33 80.5255 125.479 80.5502C125.991 80.6389 126.429 80.4948 126.907 80.2918C127.296 80.1263 127.822 80.1775 128.26 80.267C128.58 80.3319 128.877 80.3805 129.166 80.267C129.451 80.1528 129.736 80.1647 129.98 80.2884C130.373 80.4914 130.697 80.3847 131.004 80.2159C131.276 79.786 131.168 79.2513 131.557 78.9076C131.922 78.5835 131.771 78.0342 132.098 77.6521C132.28 77.4389 132.217 77.0082 132.238 76.6747C132.249 76.5229 132.173 76.3677 132.166 76.2159C132.104 75.056 132.031 74.8163 131.416 73.7349C131.787 72.9955 131.482 72.2347 131.237 71.5362C130.962 70.7515 131.037 70.0283 131.206 69.2752C131.226 69.1857 131.202 69.0722 131.247 68.9997C131.375 68.7968 131.53 68.61 131.675 68.4138C132.431 68.6782 132.582 69.3426 132.927 69.8697C133.288 70.43 133.095 71.0739 133.364 71.7076C133.715 71.897 133.877 72.2799 133.967 72.72C134.115 73.4773 134.272 74.2313 134.458 74.9809C134.551 75.3494 134.403 75.8176 134.857 76.0547C134.889 76.4231 134.923 76.7916 134.95 77.0875C134.878 77.2146 134.857 77.2871 134.813 77.3212C133.715 78.1681 133.406 79.4381 133.031 80.667C132.989 80.8009 133.012 80.9664 133.044 81.1071C133.12 81.4687 133.124 81.798 132.732 81.9771C132.807 82.2389 132.941 82.453 132.912 82.6423C132.792 83.4406 133.112 84.1638 133.247 84.9169C133.312 85.2819 133.326 85.6572 133.419 86.012C133.494 86.3045 133.632 86.5868 133.787 86.8478C133.973 87.1685 134.205 87.461 134.397 87.7391C134.342 87.9566 134.297 88.1305 134.239 88.3514C134.541 88.4887 134.813 88.6167 135.129 88.7617C135.191 88.9237 135.289 89.1224 135.336 89.3288C135.422 89.6725 135.546 89.9907 135.873 90.1621C136.141 90.3037 136.183 90.6363 136.469 90.7813C136.686 90.8913 136.831 91.1386 137.02 91.3109C137.25 91.5173 137.497 91.7032 137.731 91.9062C137.824 91.9855 137.883 92.1484 137.983 92.1723C138.423 92.2755 138.56 92.5783 138.622 92.9774C138.636 93.0738 138.774 93.1531 138.86 93.2461C139.018 93.1668 139.15 93.1045 139.277 93.0388C139.332 93.0661 139.408 93.0798 139.432 93.1216C139.584 93.3859 139.724 93.6589 139.897 93.983C140.135 93.9309 140.367 93.8832 140.622 93.8277C140.963 94.0648 141.138 94.5569 141.696 94.6465C141.782 94.568 141.893 94.4682 142.003 94.3685C142.034 94.3719 142.082 94.365 142.093 94.3787C142.375 94.8674 142.997 94.8776 143.345 95.2802C143.727 95.7237 144.216 95.8269 144.791 95.6341C145.018 95.7748 145.251 95.9241 145.499 96.0785C145.65 95.9096 145.798 95.745 145.981 95.542C146.267 95.745 146.483 96.1058 146.872 95.8687C147.172 96.0887 147.468 96.058 147.833 95.9991C148.202 95.9411 148.604 96.1126 149.082 96.2021C149.564 95.7382 150.169 96.2814 150.761 96.1817C150.806 96.1748 150.876 96.313 150.938 96.3778C151.089 96.5365 151.254 96.6397 151.498 96.6431C151.795 96.6465 152.088 96.7258 152.397 96.7701C152.462 96.6669 152.544 96.5433 152.672 96.3471C152.836 96.5501 152.981 96.7258 153.122 96.8981C153.26 96.9731 154.027 96.9177 154.554 96.7829C154.64 96.8452 154.75 96.9117 154.833 96.9979C154.919 97.0866 154.981 97.1974 155.013 97.2418C155.143 97.2418 155.174 97.2486 155.202 97.2418C155.498 97.1556 155.794 97.0661 156.121 96.9663C156.561 97.0908 157.019 97.3927 157.525 97.0857C157.566 97.0618 157.656 97.0721 157.7 97.1002C158.344 97.5369 158.846 97.2213 159.341 96.8119C159.386 96.777 159.459 96.7736 159.566 96.7429C159.641 96.777 159.751 96.8256 159.861 96.8802C159.943 96.922 160.026 96.9663 160.102 97.0047C160.374 96.9629 160.546 96.6158 160.877 96.7872C160.946 96.8256 161.086 96.8222 161.138 96.777C161.592 96.3642 162.177 96.4844 162.701 96.3539C163.351 96.1953 164.023 96.064 164.601 95.6819C164.714 95.606 164.886 95.6273 165.027 95.5932C165.171 95.5591 165.368 95.5522 165.45 95.4559C165.719 95.1463 166.094 95.1207 166.442 95.0456C166.8 94.9663 167.216 95.038 167.525 94.8836C167.845 94.7215 168.15 94.6678 168.49 94.6465C168.635 94.6397 168.8 94.5851 168.91 94.4955C169.199 94.2576 169.498 94.0682 169.88 94.1612C169.905 94.0034 169.918 93.913 169.931 93.8201C170.833 93.7271 171.77 93.7476 172.431 93.0013C172.82 93.1523 172.857 93.4627 172.887 93.8277C173.886 93.8653 174.169 94.6849 174.427 95.4243C174.609 95.9514 175.049 96.3463 175.097 96.9279C175.104 97.0209 175.335 97.0968 175.494 97.2C175.328 97.6571 175.606 98.0784 175.634 98.5083C175.669 99.0354 176.116 99.1659 176.278 99.565C176.305 99.8089 176.337 100.088 176.365 100.37C176.554 100.587 176.921 100.645 176.869 101.071C176.846 101.289 176.976 101.55 177.101 101.753C177.297 102.078 177.621 102.339 177.504 102.783C177.497 102.807 177.517 102.844 177.534 102.868C177.689 103.127 177.896 103.368 177.993 103.647C178.079 103.902 178.016 104.205 178.078 104.469C178.133 104.704 178.254 104.927 178.368 105.14C178.554 105.492 178.781 105.821 178.953 106.176C179.142 106.575 179.462 106.912 179.489 107.39C179.513 107.821 179.585 108.248 179.64 108.727C179.737 108.779 179.868 108.85 180.04 108.943C180.078 109.212 180.122 109.508 180.153 109.807C180.187 110.148 180.356 110.312 180.759 110.199C180.608 111.166 181.23 111.996 180.972 112.988C180.483 113.153 180.191 113.603 179.957 114.092C179.258 113.979 179.159 113.39 178.939 112.95C178.704 112.485 178.478 111.99 178.571 111.562C178.254 111.009 177.999 110.554 177.737 110.1C177.63 109.914 177.528 109.717 177.391 109.556C177.225 109.356 177.077 109.171 177.176 108.892C177.194 108.84 177.198 108.761 177.17 108.72C176.743 108.066 176.698 107.247 176.248 106.6C176.148 106.459 176.158 106.242 176.096 106.066C175.993 105.777 175.902 105.471 175.745 105.213C175.545 104.889 175.428 104.559 175.325 104.194C175.181 103.671 174.904 103.181 174.657 102.692C174.492 102.366 174.382 102.06 174.661 101.791C174.453 101.35 174.267 100.965 174.089 100.577C174.037 100.463 174.037 100.312 173.958 100.229C173.301 99.565 173.315 98.6524 173.043 97.8465C172.816 97.1787 172.54 96.5288 172.275 95.8507C171.849 96.0153 171.49 96.1817 171.115 96.2883C170.998 96.3198 170.834 96.1876 170.648 96.1117C170.462 96.2397 170.269 96.3915 170.059 96.5126C169.819 96.6499 169.543 96.8836 169.313 96.8563C168.841 96.7983 168.569 97.0115 168.273 97.2972C167.785 97.7646 167.771 97.7509 166.88 97.9266C166.748 97.8576 166.614 97.7851 166.462 97.7057C166.186 98.0358 165.947 98.4563 165.403 98.2217C164.88 98.4179 164.346 98.5458 163.781 98.5876C163.629 98.5978 163.49 98.7872 163.351 98.904C163.087 99.1172 162.848 99.3825 162.397 99.3168C162.342 99.217 162.273 99.0865 162.205 98.9595C162.146 98.9595 162.06 98.9347 162.033 98.9629C161.558 99.4652 160.922 99.6051 160.285 99.7364C160.14 99.7671 160.02 99.7578 159.869 99.6375C159.587 99.4166 159.112 99.3782 158.774 99.4644C158.327 99.5778 157.886 99.7023 157.384 99.8371C157.184 99.7612 156.926 99.6614 156.672 99.5616C156.523 99.6059 156.375 99.6477 156.179 99.7057C156.086 99.5616 155.987 99.4098 155.904 99.2793C155.629 99.2793 155.363 99.2861 155.097 99.2793C154.83 99.2725 154.554 99.2759 154.292 99.2315C154.035 99.1863 153.787 99.0831 153.474 98.9868C153.474 99.1932 153.432 99.3347 153.48 99.42C153.821 100.023 154.052 100.655 154.127 101.343C154.141 101.464 154.175 101.595 154.238 101.698C154.564 102.252 154.672 102.855 154.599 103.498C154.792 103.667 154.971 103.822 155.164 103.986C155.091 104.221 155.026 104.425 154.957 104.652C155.073 104.793 155.195 104.93 155.309 105.063C155.24 105.601 155.109 106.107 155.443 106.644C155.639 106.96 155.605 107.419 155.68 107.815C155.715 107.997 155.7 108.221 155.804 108.355C156.041 108.672 155.925 108.998 155.925 109.328C155.925 109.672 155.732 110.016 156.059 110.361C156.183 110.491 156.087 110.84 156.072 111.084C156.048 111.566 156.113 112.009 156.522 112.302C156.447 112.577 156.385 112.804 156.309 113.083C156.488 113.207 156.665 113.331 156.84 113.452C156.53 113.931 156.505 114.491 155.934 114.76C155.628 114.364 155.033 114.388 154.723 113.903C154.62 113.745 154.279 113.741 154.004 113.654C153.88 112.918 153.68 112.178 153.208 111.565C153.264 111.355 153.292 111.169 153.364 110.997C153.543 110.57 153.55 110.169 153.309 109.759C153.216 109.604 153.13 109.405 153.143 109.236C153.206 108.383 152.836 107.598 152.782 106.765C152.757 106.403 152.604 106.055 152.734 105.666C152.789 105.501 152.647 105.257 152.575 105.058C152.361 104.476 152.358 104.479 152.557 103.819C152.372 103.505 152.173 103.191 151.995 102.868C151.922 102.734 151.822 102.559 151.853 102.431C152.029 101.757 151.566 101.196 151.48 100.538C151.422 100.704 151.305 100.876 151.317 101.038C151.361 101.819 150.969 102.47 150.639 103.106C150.308 103.747 150.066 104.352 150.063 105.086C150.063 105.471 149.891 105.867 149.743 106.239C149.34 107.257 149.089 108.299 149.195 109.411C148.617 110.075 148.273 110.806 148.594 111.748C148.315 112.234 148.008 112.733 147.736 113.253C147.657 113.404 147.682 113.607 147.661 113.786C147.61 114.209 147.54 114.302 147.041 114.605C146.931 114.55 146.824 114.491 146.714 114.44C146.69 114.43 146.656 114.44 146.567 114.44C146.367 114.939 145.868 115.059 145.354 115.235C145.275 115.087 145.194 114.932 145.08 114.726C144.633 114.653 144.151 114.577 143.672 114.506C143.363 113.527 143.898 112.95 145.2 112.86C145.437 112.564 145.241 112.269 145.168 111.965C145.506 111.425 145.686 110.837 145.703 110.203C145.73 109.133 146.135 108.172 146.576 107.226C146.627 107.116 146.769 106.985 146.742 106.913C146.524 106.321 146.924 105.846 147.028 105.319C147.128 104.81 147.282 104.287 147.956 104.149V102.363C148.266 102.057 148.517 101.616 148.679 101.1C148.954 100.223 149.323 99.3714 149.653 98.5109C148.745 97.8328 147.874 98.0017 147.073 98.6038C146.481 98.6729 145.967 98.116 145.413 98.5671C144.897 98.3497 144.47 97.9923 143.905 97.8644C143.548 97.7825 143.252 97.4209 142.859 97.1352H142.291C141.851 97.1352 141.441 97.0942 141.132 96.6976C140.998 96.5262 140.736 96.4537 140.481 96.4128C140.309 96.1919 140.141 95.9684 139.952 95.7237C139.886 95.7066 139.799 95.6793 139.713 95.6623C139.596 95.6384 139.45 95.6588 139.364 95.5966C139.068 95.3868 138.839 95.0908 138.457 94.9945C138.12 94.9083 137.832 94.7258 137.629 94.4299C137.595 94.3821 137.535 94.3301 137.48 94.3232C136.857 94.2439 136.616 93.7348 136.402 93.27C136.162 92.7471 135.793 92.3744 135.353 92.0444C134.789 91.6239 134.238 91.1949 133.921 90.5305C133.849 90.3762 133.639 90.29 133.526 90.1484C133.333 89.9113 133.182 89.6427 132.989 89.4056C132.5 88.7992 132.286 88.0563 131.953 87.3749C131.502 86.4589 131.117 85.5054 131.024 84.4939C130.976 83.9711 130.928 83.4542 130.811 82.9417C130.776 82.7941 130.703 82.6491 130.628 82.5186C130.572 82.4359 130.479 82.3873 130.438 82.3498Z" fill="black"/>
<path d="M199.608 51.7482C200.103 51.9068 200.445 52.0271 200.792 52.1235C201.525 52.3333 202.303 52.4024 202.926 52.9388C203.146 53.1282 203.477 53.1938 203.745 53.3141C203.913 53.1972 204.062 53.094 204.202 52.9977C204.271 53.0454 204.351 53.0736 204.361 53.1145C204.54 53.7925 205.053 54.109 205.648 54.3571C205.993 54.4979 206.491 54.4186 206.578 54.9627C206.963 55.1281 207.087 55.4821 207.183 55.8266C207.841 56.0228 207.985 56.1806 208.391 56.8032C208.673 57.2364 208.955 57.6603 209.128 58.1524C209.303 58.6514 209.75 58.9755 209.957 59.4778C210.071 59.7533 210.315 60.0211 210.48 60.3068C210.714 60.723 210.869 61.1511 210.614 61.6535C210.873 61.7183 211.076 61.7703 211.326 61.836C211.341 62.0108 211.351 62.1865 211.365 62.3622C211.378 62.514 211.392 62.6684 211.413 62.885C211.558 62.9678 211.74 63.071 211.977 63.2091C211.957 63.326 211.933 63.4667 211.898 63.6739C212.026 63.7874 212.308 63.9281 212.311 64.0697C212.315 64.4407 212.765 64.7545 212.439 65.1776C212.346 65.2944 212.342 65.5596 212.408 65.7072C212.624 66.1967 212.376 66.6061 212.212 67.0598C212.359 67.2526 212.508 67.4419 212.648 67.6279C212.586 67.8897 212.352 68.0927 212.604 68.392C212.81 68.6402 212.432 68.9805 212.665 69.3353C212.793 69.5315 212.704 69.9093 212.493 70.1882C212.376 70.3426 212.404 70.6052 212.366 70.8185C212.297 71.1971 212.459 71.5792 212.19 71.9715C212.001 72.247 212.036 72.6769 211.96 73.1076C212.029 73.2278 212.136 73.4103 212.239 73.5928C212.039 73.8197 211.853 74.0261 211.647 74.2598C211.705 74.467 211.76 74.6666 211.823 74.8935C211.505 75.0862 211.609 75.4052 211.63 75.7429C211.152 75.7216 211.106 76.1694 210.876 76.4244C210.648 76.6751 210.452 76.9549 210.246 77.2133C210.339 77.3924 210.494 77.5502 210.474 77.6815C210.449 77.8325 210.267 77.9587 210.122 78.1344C210.164 78.2999 210.215 78.5028 210.271 78.7331C210.205 78.7886 210.143 78.8508 210.071 78.8986C209.923 78.9984 209.696 79.0581 209.633 79.192C209.372 79.777 209.158 80.3826 208.901 81.064C208.45 81.1433 208.243 81.6841 207.844 81.9595C207.413 82.2555 207.224 82.7919 206.698 82.9258C206.659 83.2465 206.625 83.5186 206.588 83.8418C206.381 83.9314 206.161 84.0312 205.92 84.1378C205.359 85.0947 204.708 85.9851 203.459 86.2401C203.494 86.5292 203.524 86.7877 203.556 87.0358C203.232 87.1766 202.943 87.2798 202.675 87.4213C202.261 87.6414 201.879 87.8989 201.645 88.3356C201.518 88.5736 201.336 88.7561 201.064 88.9011C200.833 89.0213 200.727 89.3727 200.516 89.6994C199.745 89.6405 199.089 90.0124 198.486 90.6529C198.108 91.0588 197.557 91.3241 196.989 91.4819C196.273 91.6814 195.602 91.9919 194.958 92.3629C194.8 92.4524 194.625 92.5147 194.452 92.5735C194.022 92.7177 194.022 92.7143 193.747 93.2166C193.072 93.6123 192.329 93.5774 191.561 93.6183C191.441 93.1578 191.2 92.8448 190.835 92.577C190.305 92.1846 190.419 91.1825 191.021 90.959C191.699 90.704 192.153 90.1121 192.824 89.8716C193.21 89.2243 194.008 89.2345 194.542 88.8081C194.721 88.6665 195.071 88.7416 195.35 88.7177C195.529 88.5079 195.709 88.2955 195.891 88.0891C196.27 87.6584 196.3 87.6303 197.019 87.4239C197.398 87.3173 197.519 86.983 197.674 86.7697C197.922 86.6768 198.186 86.6606 198.304 86.519C198.603 86.1582 198.971 85.8896 199.356 85.6516C199.725 85.4248 200.131 85.2627 200.544 85.0631C200.775 84.6299 200.878 84.0585 201.5 83.9314C201.652 83.4145 202.227 83.3352 202.52 82.9497C202.719 82.6845 203.005 82.496 203.177 82.1796C203.328 81.9007 203.58 81.6943 203.93 81.5527C204.43 81.3566 204.705 80.896 204.664 80.2691C205.029 80.0355 205.338 79.7114 205.514 79.2713C205.604 79.0512 205.71 78.8619 205.9 78.676C206.123 78.4559 206.312 78.0764 206.299 77.7736C206.282 77.377 206.646 77.2815 206.711 76.989C207.62 76.566 207.709 75.6363 208.005 74.844C208.223 74.27 208.247 73.6261 208.666 73.1238C208.732 73.0445 208.711 72.8901 208.729 72.7732C208.914 71.6133 209.042 70.4389 209.434 69.3242C209.537 69.0351 209.657 68.7502 209.778 68.4509C209.654 67.9306 209.454 67.4035 209.647 66.8355C209.689 66.7119 209.627 66.5268 209.561 66.3929C209.086 65.4462 209.055 64.433 209.111 63.459C208.966 63.1426 208.842 62.8646 208.715 62.5891C208.625 62.3963 208.58 62.1388 208.429 62.0219C207.827 61.5673 207.682 60.92 207.582 60.242C207.527 59.8599 207.437 59.4855 207.131 59.2441C206.849 59.0207 206.512 58.862 206.01 58.5661C205.934 58.4006 205.813 58.0109 205.589 57.691C205.379 57.3951 205.049 57.1861 204.798 56.9141C204.677 56.7836 204.615 56.5942 204.523 56.4185C204.371 56.3392 204.189 56.2778 204.048 56.1635C203.563 55.7891 203.067 55.4684 202.447 55.338C202.207 55.2859 202.007 55.042 201.807 54.9004C201.532 54.9456 201.291 54.9968 201.047 55.0147C200.898 55.0249 200.668 55.0352 200.609 54.9525C200.296 54.4945 199.801 54.5832 199.367 54.48C199.25 54.4527 199.133 54.4075 199.023 54.3734C198.971 54.2531 198.92 54.1439 198.854 53.9887C197.646 54.0578 196.428 53.4889 195.117 53.9947C195.017 53.9401 194.858 53.8548 194.652 53.7482C193.994 54.0194 193.313 53.8719 192.645 53.6271C192.181 53.4591 191.953 53.1171 192.088 52.5149C192.249 52.4254 192.457 52.2267 192.673 52.213C193.203 52.1849 193.616 51.9341 193.936 51.7243C194.504 51.6723 195.013 51.4864 195.406 51.6314C195.908 51.8139 196.445 51.4787 196.834 51.7576C197.274 52.0774 197.77 51.5512 198.132 52.0297C198.289 51.9026 198.407 51.8096 198.568 51.6749C198.937 51.964 199.356 51.8002 199.608 51.7482Z" fill="black"/>
<path d="M149.275 67.6786C149.19 67.2522 149.164 66.8002 149.335 66.3737C149.42 66.1179 149.42 65.8023 149.505 65.5465C149.505 65.4612 149.505 65.2906 149.591 65.2053C149.761 64.9495 149.932 64.668 150.017 64.4121C150.102 64.071 150.102 63.8151 150.273 63.5593C150.443 63.2181 150.614 62.8173 150.614 62.3908C150.699 61.7938 150.87 61.2821 151.296 60.9409C151.211 60.1734 151.382 59.5508 151.893 58.9538C151.979 58.7832 152.149 58.6126 152.149 58.442C152.149 58.0156 152.32 57.6744 152.49 57.3333C152.746 56.9069 152.916 56.4207 152.916 55.909C152.916 55.3973 153.173 54.9708 153.258 54.4591C153.258 54.3738 153.258 54.2033 153.343 54.118C153.684 53.7768 153.77 53.2651 153.77 52.8387C153.94 52.7534 154.025 52.6681 154.196 52.5828C154.196 52.4122 154.196 52.1564 154.281 51.9858C154.367 51.8152 154.537 51.619 154.708 51.5338C154.878 51.4485 155.134 51.4741 155.39 51.4741C155.305 51.6446 155.134 51.7299 155.049 51.9005C155.219 51.9858 155.39 51.9602 155.561 52.0455C155.561 52.2161 155.561 52.4719 155.475 52.6425C155.305 52.9836 155.305 53.3248 155.219 53.6659C155.134 54.0071 154.989 54.2885 155.074 54.6297C155.074 54.8003 155.134 54.8855 155.049 55.0561C154.964 55.312 154.878 55.6275 154.878 55.8834C154.878 56.1393 154.622 56.4804 154.452 56.7363C154.196 57.0774 154.196 57.4442 154.452 57.7853C154.025 58.3823 153.855 59.0646 153.94 60.0028C153.855 60.0881 153.769 60.4292 153.598 60.5998C153.342 60.9409 153.258 61.3418 153.173 61.7682C153.087 62.28 152.831 62.8173 152.661 63.329C152.405 64.0966 152.148 64.9239 152.063 65.7767C152.063 65.9473 152.064 66.1435 152.064 66.3993C151.637 67.1669 151.382 68.0198 151.296 68.958C151.296 69.1285 151.211 69.2991 151.296 69.3844C151.467 69.8108 151.296 70.2117 151.126 70.4675C150.785 70.894 150.785 71.4313 150.87 71.8577C150.955 72.3694 150.87 72.7106 150.699 73.137C150.614 73.3929 150.443 73.5635 150.358 73.9046C150.614 73.9046 150.785 73.8193 150.955 73.8193C151.637 73.6488 152.18 73.5891 152.529 73.9294C152.732 74.1255 153.022 74.0411 153.225 73.8108C153.369 73.6402 153.486 73.5805 153.69 73.5805C154.097 73.5208 154.709 73.6581 155.26 73.5131C155.463 73.4534 155.608 73.5131 155.811 73.5387C155.955 73.5652 156.134 73.479 156.278 73.479C156.77 73.4193 157.32 73.3008 157.787 73.6675C158.338 73.2667 159.009 73.3775 159.56 72.8061C159.908 73.0023 160.229 73.2249 160.578 73.4799C160.579 73.9063 160.291 73.966 160.147 74.2219C160.147 74.3925 160.147 74.563 160.147 74.6483C159.944 74.8189 159.766 74.963 159.622 75.1336C159.215 75.6197 158.724 75.653 158.172 75.5421C158.028 75.5421 157.968 75.3716 157.823 75.2607C157.62 75.4057 157.416 75.4918 157.213 75.6624C157.153 75.5771 157.095 75.5507 156.95 75.3801C156.806 75.4654 156.543 75.5507 156.399 75.6957C155.907 76.0965 155.382 76.0445 154.83 75.9336C154.77 75.9336 154.745 75.8748 154.686 75.8748C154.135 76.0197 154.134 76.053 153.667 75.8568C153.608 75.8304 153.464 75.8568 153.405 75.8568C153.201 75.9165 153.057 75.9165 152.854 76.0018C152.794 75.9165 152.709 75.7468 152.59 75.6615C152.386 75.8065 152.129 75.978 151.702 76.1221C151.473 75.7809 151.467 75.2692 150.87 75.3545C150.699 75.5251 150.529 75.9259 150.188 75.9259C150.017 75.9259 149.846 75.9515 149.761 75.8662C149.335 75.6957 148.993 75.5251 148.567 75.5251C148.226 75.5251 147.97 75.1839 147.885 74.9281C147.97 74.5016 147.97 74.0752 148.055 73.734C148.055 73.6488 148.055 73.4782 148.141 73.3929C148.396 73.0517 148.396 72.5997 148.482 72.1733C148.482 72.0027 148.481 71.6871 148.566 71.6019C148.907 71.1754 148.738 70.7234 148.738 70.2117C148.738 69.3588 148.678 68.5315 149.275 67.6786Z" fill="black"/>
<path d="M170.099 51.3623C170.099 51.3623 170.013 51.3623 169.927 51.3623C169.075 51.0211 168.078 51.0476 167.225 51.0476C166.884 51.0476 166.601 51.0476 166.345 51.1329C165.919 51.3035 165.407 51.277 164.981 51.1917C164.469 51.1064 163.984 51.0211 163.557 51.1064C162.193 51.277 160.888 51.1917 159.523 51.1064C159.353 50.9359 159.267 50.7917 159.097 50.6212C158.926 50.7917 158.755 51.0211 158.499 51.1917C158.499 51.1917 158.414 51.1917 158.328 51.1917C158.158 51.1917 157.928 51.2182 157.758 51.1329C157.075 50.877 156.368 50.7064 155.685 51.0476C155.515 51.1329 155.114 51.1329 154.943 51.0476C154.517 50.7917 154.065 50.9623 153.553 51.0476C153.212 50.6212 152.615 50.7653 152.103 50.5094C151.592 50.9359 151.08 50.9623 150.398 50.877C149.886 50.7917 149.458 50.9623 148.947 50.9623C148.435 50.9623 147.839 51.0211 147.327 51.0211C147.071 51.0211 146.985 51.0476 146.815 50.7917C146.729 50.7064 146.559 50.7064 146.388 50.7064C146.047 50.7064 145.791 50.7653 145.45 50.8506C144.682 51.0211 143.916 51.0211 143.148 50.7653C143.063 50.7653 142.891 50.7653 142.806 50.7653C142.465 50.8506 142.124 50.8506 141.697 50.9359C141.441 50.5947 141.127 50.3389 140.871 49.9977C140.786 49.9977 140.759 49.9389 140.589 49.9389C140.503 49.5977 140.589 49.4271 140.844 49.3418C141.527 49.1713 142.21 48.889 142.892 49.1448C142.978 49.1448 143.063 49.1713 143.148 49.1713C143.575 48.8301 144.085 49.1448 144.512 49.0595C144.938 48.9743 145.45 49.1448 145.876 49.1448C146.644 49.1448 147.412 49.0007 148.179 49.0007C148.861 49.0007 149.459 48.9154 150.056 49.0007C150.568 49.086 150.994 49.0595 151.42 48.889C151.761 48.9743 152.018 49.1713 152.359 49.1713C152.615 49.1713 152.955 49.0595 153.296 48.889C153.467 48.9743 153.638 49.0595 153.893 49.1448C154.49 48.7184 155.088 49.0007 155.771 49.0007C156.794 49.0007 157.903 49.0595 158.926 48.889C159.182 48.889 159.522 48.8037 159.693 48.889C160.375 49.1448 160.888 49.0007 161.57 48.9154C161.826 48.9154 162.252 48.9154 162.507 48.9154C162.763 48.9154 163.02 48.889 163.276 48.889C163.617 48.889 163.898 49.0007 164.154 49.086C164.495 49.2566 164.726 49.1448 165.067 49.0595C165.408 48.9743 165.834 48.889 166.175 48.8037C166.431 48.7184 166.628 48.889 166.798 49.1448C167.566 49.0595 168.393 48.9743 169.246 48.889C169.758 48.8037 170.184 49.0007 170.611 49.3418C170.952 49.5977 170.866 50.1947 170.611 50.6212C170.44 50.877 170.269 51.1064 170.099 51.3623Z" fill="black"/>
<path d="M165.769 56.8958C165.342 56.4694 164.916 56.1282 164.404 55.6165C164.234 55.19 164.49 54.6195 164.49 54.0225C164.49 53.4254 165.001 53.0843 165.257 52.5726C165.428 52.5726 165.599 52.4873 165.684 52.5726C166.026 52.7431 166.366 52.8284 166.707 52.8284C166.963 52.8284 167.219 52.999 167.219 53.2549C167.219 53.9372 167.304 54.5077 167.219 55.19C167.048 56.0429 166.622 56.6399 165.769 56.8958Z" fill="black"/>
<path d="M147.109 55.7863C147.024 55.9569 146.854 56.1275 146.684 56.2981C146.598 56.3833 146.342 56.3833 146.342 56.3833C146.087 56.1275 145.771 56.2981 145.515 56.2128C144.918 56.0422 144.466 55.2746 144.551 54.6776C144.551 54.507 144.637 54.4217 144.637 54.2512C144.637 54.0806 144.551 53.91 144.551 53.7394C145.148 53.313 144.833 52.5454 145.345 52.0337C145.856 52.0337 146.428 52.1778 146.939 52.1778C147.025 52.7748 147.281 53.3983 147.281 53.9953C147.281 54.5923 147.194 55.104 147.109 55.7863Z" fill="black"/>
<path d="M236.377 26.1192C236.377 38.1437 226.629 47.8918 214.605 47.8918C202.579 47.8918 192.832 38.1437 192.832 26.1192C192.832 14.0948 202.579 4.34668 214.605 4.34668C226.629 4.34668 236.377 14.0948 236.377 26.1192Z" fill="#00A264"/>
<path d="M225.884 18.8748C224.843 17.8798 223.169 17.878 222.128 18.8714L222.125 18.8731V18.8748L211.156 29.264L207.064 25.6577L207.062 25.6595C206.019 24.6844 204.362 24.6896 203.326 25.6786C202.266 26.6919 202.266 28.3498 203.326 29.364L203.335 29.371L203.343 29.3788L203.833 28.8335H203.834L203.343 29.3788L209.311 34.7404L209.313 34.7387C210.355 35.7181 212.015 35.7146 213.051 34.7265H213.052L225.882 22.562L225.377 22.0288L225.38 22.0323L225.882 22.562L225.884 22.5585C226.945 21.5452 226.945 19.8882 225.884 18.8748Z" fill="white"/>
<path d="M141.537 77.8149C147.03 87.1768 165.707 85.0382 170.631 74.6005" stroke="black" stroke-width="1.70577" stroke-linecap="round"/>
</svg>
